<svg width="298" height="315" viewBox="0 0 298 315" fill="none" xmlns="http://www.w3.org/2000/svg">
<path d="M227.969 314.357C222.656 299.293 219.371 283.855 218.013 268.391C232.081 261.832 247.094 256.964 262.79 254.041C255.324 262.759 248.546 272.29 242.601 282.591C236.649 292.898 231.787 303.53 227.969 314.357Z" stroke="white" stroke-miterlimit="10"/>
<path d="M227.969 314.357C222.656 299.293 219.371 283.855 218.013 268.391C232.081 261.832 247.094 256.964 262.79 254.041C255.324 262.759 248.546 272.29 242.601 282.591C236.649 292.898 231.787 303.53 227.969 314.357Z" stroke="white" stroke-miterlimit="10"/>
<path d="M154.417 562.392C102.212 552.579 54.4498 520.894 25.8126 471.286C-2.83086 421.678 -6.38547 364.472 11.2124 314.357C25.6311 355.417 54.2433 391.72 94.8835 415.188C99.7398 417.992 104.665 420.558 109.653 422.88C109.171 428.362 108.927 433.913 108.927 439.52C108.927 486.456 126.061 529.38 154.417 562.392Z" stroke="white" stroke-miterlimit="10"/>
<path d="M227.969 314.357C222.656 299.293 219.371 283.855 218.013 268.391C232.081 261.832 247.094 256.964 262.79 254.041C255.324 262.759 248.546 272.29 242.601 282.591C236.649 292.898 231.787 303.53 227.969 314.357Z" stroke="white" stroke-miterlimit="10"/>
<path d="M227.017 436.641C188.492 444.539 147.383 440.484 109.652 422.88C113.276 381.407 130.317 343.777 156.413 314.357C173.473 333.595 194.419 349.328 218.012 360.323C215.734 386.251 218.888 412.241 227.017 436.641Z" stroke="white" stroke-miterlimit="10"/>
<path d="M156.413 314.36C130.317 343.779 113.276 381.41 109.652 422.882C104.665 420.56 99.7394 417.995 94.8831 415.191C54.2428 391.723 25.6306 355.42 11.2119 314.36C25.6306 273.3 54.2428 236.997 94.8831 213.529C99.7394 210.725 104.665 208.166 109.652 205.838C113.276 247.31 130.317 284.941 156.413 314.36Z" fill="white" fill-opacity="0.2" stroke="white" stroke-miterlimit="10"/>
<path d="M108.927 189.196C108.927 194.803 109.171 200.354 109.653 205.837C104.665 208.165 99.7398 210.724 94.8835 213.528C54.2433 236.996 25.6311 273.299 11.2124 314.359C-6.38547 264.244 -2.83086 207.038 25.8126 157.43C54.456 107.822 102.218 76.1432 154.417 66.3242C126.061 99.3421 108.927 142.267 108.927 189.196Z" stroke="white" stroke-miterlimit="10"/>
<path d="M227.969 314.358C222.655 329.422 219.37 344.861 218.012 360.324C194.419 349.329 173.473 333.596 156.413 314.358C173.473 295.121 194.419 279.388 218.012 268.393C219.37 283.856 222.655 299.295 227.969 314.358Z" stroke="white" stroke-miterlimit="10"/>
<path d="M227.969 314.357C222.656 299.293 219.371 283.855 218.013 268.391C232.081 261.832 247.094 256.964 262.79 254.041C255.324 262.759 248.546 272.29 242.601 282.591C236.649 292.898 231.787 303.53 227.969 314.357Z" stroke="white" stroke-miterlimit="10"/>
<path d="M218.013 268.393C194.42 279.389 173.474 295.122 156.414 314.359C130.318 284.94 113.277 247.31 109.653 205.837C147.384 188.239 188.493 184.178 227.018 192.075C218.889 216.476 215.735 242.466 218.013 268.393Z" stroke="white" stroke-miterlimit="10"/>
<path d="M297.622 97.3136C263.515 121.188 239.446 154.763 227.018 192.074C188.493 184.176 147.383 188.238 109.653 205.836C109.171 200.354 108.927 194.803 108.927 189.195C108.927 142.266 126.062 99.3412 154.417 66.3233C197.185 58.2691 242.932 64.8965 283.572 88.3644C288.429 91.1681 293.116 94.1532 297.622 97.3136Z" fill="white" fill-opacity="0.2" stroke="white" stroke-miterlimit="10"/>
<path d="M440.826 66.3229C398.058 58.2687 352.311 64.8961 311.671 88.364C306.815 91.1677 302.128 94.1528 297.622 97.3132C293.116 94.1528 288.428 91.1677 283.572 88.364C242.932 64.8961 197.185 58.2687 154.417 66.3229C189.018 26.0269 240.341 0.5 297.622 0.5C354.902 0.5 406.225 26.0269 440.826 66.3229Z" stroke="white" stroke-miterlimit="10"/>
<path d="M297.622 222.432C284.906 231.338 273.172 241.908 262.79 254.042C247.094 256.965 232.081 261.834 218.013 268.392C215.735 242.465 218.889 216.475 227.018 192.074C252.213 197.225 276.307 207.494 297.622 222.432Z" stroke="white" stroke-miterlimit="10"/>
<path d="M262.79 254.041C255.324 262.759 248.546 272.29 242.601 282.591C236.649 292.898 231.787 303.53 227.969 314.357C222.656 299.293 219.371 283.855 218.013 268.391C232.081 261.832 247.094 256.964 262.79 254.041Z" stroke="white" stroke-miterlimit="10"/>
<path d="M368.227 192.075C343.025 197.225 318.938 207.495 297.623 222.433C276.308 207.495 252.214 197.225 227.019 192.075C239.447 154.764 263.516 121.189 297.623 97.3145C331.73 121.189 355.798 154.764 368.227 192.075Z" stroke="white" stroke-miterlimit="10"/>
<path d="M486.317 189.195C486.317 194.803 486.073 200.354 485.591 205.836C447.861 188.232 406.751 184.176 368.226 192.074C355.798 154.763 331.729 121.188 297.622 97.3136C302.128 94.1532 306.815 91.1681 311.672 88.3644C352.312 64.8965 398.059 58.2691 440.827 66.3233C469.182 99.3412 486.317 142.266 486.317 189.195Z" fill="white" fill-opacity="0.2" stroke="white" stroke-miterlimit="10"/>
<path d="M332.455 254.043C321.165 251.928 309.525 250.827 297.622 250.827C285.719 250.827 274.079 251.928 262.789 254.043C273.171 241.909 284.905 231.339 297.622 222.434C310.338 231.339 322.066 241.909 332.455 254.043Z" stroke="white" stroke-miterlimit="10"/>
<path d="M262.79 374.673C247.094 371.751 232.081 366.882 218.013 360.323C219.371 344.859 222.656 329.421 227.969 314.357C231.787 325.184 236.649 335.817 242.601 346.124C248.546 356.425 255.324 365.956 262.79 374.673Z" stroke="white" stroke-miterlimit="10"/>
<path d="M377.232 268.392C363.163 261.834 348.15 256.965 332.455 254.042C322.066 241.908 310.339 231.338 297.622 222.432C318.937 207.494 343.025 197.225 368.226 192.074C376.356 216.475 379.51 242.465 377.232 268.392Z" stroke="white" stroke-miterlimit="10"/>
</svg>
